<?xml version="1.0" encoding="iso-8859-1"?>
<!-- Uploaded to: SVG Repo, www.svgrepo.com, Generator: SVG Repo Mixer Tools -->
<svg version="1.1" id="Layer_1" xmlns="http://www.w3.org/2000/svg" xmlns:xlink="http://www.w3.org/1999/xlink" 
	 viewBox="0 0 512 512" xml:space="preserve">
<path style="fill:#F7A872;" d="M512,126.885v265.116c0,13.191-10.705,23.896-23.896,23.896H290.434
	c-3.847,0-6.954,3.107-6.954,6.942v0.012c0,3.835-3.107,6.942-6.954,6.942h-41.054c-3.847,0-6.954-3.107-6.954-6.942v-0.012
	c0-3.835-3.107-6.942-6.954-6.942H23.896C10.705,415.898,0,405.192,0,392.002V126.885c0-10.694,7.037-19.762,16.727-22.797
	c2.27-0.717,4.672-1.099,7.169-1.099h464.208C501.294,102.989,512,113.695,512,126.885z"/>
<g>
	<rect x="314.104" y="374.549" style="fill:#E09461;" width="77.065" height="41.352"/>
	<path style="fill:#E09461;" d="M239.273,102.989V375.74H16.727V104.088c2.27-0.717,4.672-1.099,7.169-1.099H239.273z"/>
</g>
<g>
	<path style="fill:#B3B3B3;" d="M209.14,298.579c25.88,0,46.86,51.281,46.86,77.161H33.455v-77.161L209.14,298.579L209.14,298.579z"
		/>
	<path style="fill:#B3B3B3;" d="M478.533,293.8v81.94H256c0-25.88,20.969-81.94,46.849-81.94L478.533,293.8L478.533,293.8z"/>
</g>
<g>
	<path style="fill:#E6E6E6;" d="M478.533,62.831V328.88H302.849c-25.88,0-46.849,20.981-46.849,46.86V109.692
		c0-25.88,20.969-46.86,46.849-46.86C302.849,62.831,478.533,62.831,478.533,62.831z"/>
	<path style="fill:#E6E6E6;" d="M256,109.692V375.74c0-25.88-20.981-46.86-46.86-46.86H33.455V62.831H209.14
		C235.019,62.831,256,83.812,256,109.692z"/>
</g>
<polygon style="fill:#E88158;" points="223.306,238.572 94.273,238.572 94.273,123.877 76.351,123.877 76.351,238.572 
	58.43,238.572 58.43,256.495 76.351,256.495 76.351,276.208 94.273,276.208 94.273,256.495 223.306,256.495 "/>
<path style="fill:#5DACD8;" d="M165.958,224.236c-30.634,0-55.556-24.923-55.556-55.556v-8.961h17.922v8.961
	c0,20.751,16.883,37.634,37.634,37.634s37.634-16.883,37.634-37.634v-8.961h17.922v8.961
	C221.514,199.313,196.59,224.236,165.958,224.236z"/>
<g>
	<rect x="311.117" y="106.553" style="fill:#808080;" width="123.663" height="17.922"/>
	<rect x="311.117" y="266.048" style="fill:#808080;" width="123.663" height="17.922"/>
	<rect x="311.117" y="226.178" style="fill:#808080;" width="123.663" height="17.922"/>
	<rect x="311.117" y="146.424" style="fill:#808080;" width="123.663" height="17.922"/>
	<rect x="311.117" y="186.307" style="fill:#808080;" width="123.663" height="17.922"/>
</g>
<path style="fill:#CCCCCC;" d="M238.078,72.844v266.048c10.909,8.58,17.922,21.89,17.922,36.848V109.692
	C256,94.734,248.986,81.424,238.078,72.844z"/>
<polygon style="fill:#E88158;" points="401.92,449.169 363.39,433.195 324.858,449.169 324.858,363.787 401.92,363.787 "/>
<path style="fill:#CCCCCC;" d="M287.065,65.564C268.955,72.045,256,89.351,256,109.692V375.74c0-20.34,12.955-37.647,31.065-44.128
	V65.564z"/>
</svg>